<?xml version="1.0" encoding="UTF-8" standalone="no"?><!-- Generator: Gravit.io -->
<svg xmlns="http://www.w3.org/2000/svg"
		 style="isolation:isolate"
		 viewBox="0 0 768 128" width="768pt" height="128pt">
	<defs>
		<clipPath id="_clipPath_nZCbyr17ywdKK247Ggsvp3HHyA0gG2cu">
			<rect width="768" height="128"/>
		</clipPath>
	</defs>
	<g clip-path="url(#_clipPath_nZCbyr17ywdKK247Ggsvp3HHyA0gG2cu)">
		<g>
			<defs>
				<linearGradient id="_lgradient_18" x1="0.1464466094067262"
												y1="0.14644660940672627" x2="0.8535533905932737"
												y2="0.8535533905932737">
					<stop offset="2.5%" style="stop-color:#162631"/>
					<stop offset="100%" style="stop-color:#000C15"/>
				</linearGradient>
			</defs>
			<path
				d="M 11.52 0 L 116.48 0 C 122.838 0 128 5.162 128 11.52 L 128 116.48 C 128 122.838 122.838 128 116.48 128 L 11.52 128 C 5.162 128 0 122.838 0 116.48 L 0 11.52 C 0 5.162 5.162 0 11.52 0 Z"
				style="stroke:none;fill:url(#_lgradient_18);stroke-miterlimit:10;"/>
			<g clip-path="url(#_clipPath_FOKCezNQYJ3ZYdOn62whcVSbi5Ah4qlF)">
				<g fill="url(#_lgradient_19)">
					<text transform="matrix(0.128,0,0,0.128,28.949,56.104)"
								style="font-family:'Apple Symbols';font-weight:400;font-size:331px;font-style:normal;stroke:none;">
						code
					</text>
					<text transform="matrix(0.128,0,0,0.128,28.853,92.236)"
								style="font-family:'Apple Symbols';font-weight:400;font-size:385px;font-style:normal;stroke:none;">
						708
					</text>
				</g>
				<defs>
					<linearGradient id="_lgradient_19" x1="0.1464466094067262"
													y1="0.14644660940672627" x2="0.8535533905932737"
													y2="0.8535533905932737">
						<stop offset="0%" style="stop-color:#FFFFFF"/>
						<stop offset="100%" style="stop-color:#DDDDDD"/>
					</linearGradient>
				</defs>
			</g>
			<defs>
				<clipPath id="_clipPath_FOKCezNQYJ3ZYdOn62whcVSbi5Ah4qlF">
					<rect x="0" y="0" width="997.364" height="997.364"
								transform="matrix(0.128,0,0,0.128,0.338,0)"/>
				</clipPath>
			</defs>
		</g>
		<g>
			<linearGradient id="_lgradient_20" x1="0.1464466094067262"
											y1="0.14644660940672627" x2="0.8535533905932737"
											y2="0.8535533905932737"
											gradientTransform="matrix(538.383,0,0,94.474,155.938,21.709)"
											gradientUnits="userSpaceOnUse">
				<stop offset="0.8333333333333334%" stop-opacity="1"
							style="stop-color:rgb(255,255,255)"/>
				<stop offset="100%" stop-opacity="1"
							style="stop-color:rgb(221,221,221)"/>
			</linearGradient>
			<path
				d=" M 485.787 70.404 L 485.787 103.691 L 481.471 103.691 L 481.471 70.404 L 469.715 70.404 L 469.715 66.57 L 497.543 66.57 L 497.543 70.404 L 485.787 70.404 L 485.787 70.404 Z  M 514.25 104.199 L 514.25 104.199 L 514.25 104.199 Q 508.08 104.199 504.513 100.441 L 504.513 100.441 L 504.513 100.441 Q 500.945 96.683 500.945 90.005 L 500.945 90.005 L 500.945 90.005 Q 500.945 83.277 504.259 79.316 L 504.259 79.316 L 504.259 79.316 Q 507.572 75.355 513.158 75.355 L 513.158 75.355 L 513.158 75.355 Q 518.389 75.355 521.436 78.795 L 521.436 78.795 L 521.436 78.795 Q 524.482 82.236 524.482 87.873 L 524.482 87.873 L 524.482 90.539 L 505.313 90.539 L 505.313 90.539 Q 505.439 95.439 507.788 97.978 L 507.788 97.978 L 507.788 97.978 Q 510.137 100.517 514.402 100.517 L 514.402 100.517 L 514.402 100.517 Q 518.896 100.517 523.289 98.638 L 523.289 98.638 L 523.289 102.396 L 523.289 102.396 Q 521.055 103.361 519.062 103.78 L 519.062 103.78 L 519.062 103.78 Q 517.068 104.199 514.25 104.199 Z  M 513.107 78.884 L 513.107 78.884 L 513.107 78.884 Q 509.756 78.884 507.763 81.068 L 507.763 81.068 L 507.763 81.068 Q 505.77 83.251 505.414 87.111 L 505.414 87.111 L 519.963 87.111 L 519.963 87.111 Q 519.963 83.125 518.186 81.004 L 518.186 81.004 L 518.186 81.004 Q 516.408 78.884 513.107 78.884 Z  M 571.354 103.691 L 567.139 103.691 L 567.139 85.587 L 567.139 85.587 Q 567.139 82.261 565.717 80.598 L 565.717 80.598 L 565.717 80.598 Q 564.295 78.935 561.299 78.935 L 561.299 78.935 L 561.299 78.935 Q 557.363 78.935 555.484 81.195 L 555.484 81.195 L 555.484 81.195 Q 553.605 83.455 553.605 88.152 L 553.605 88.152 L 553.605 103.691 L 549.391 103.691 L 549.391 85.587 L 549.391 85.587 Q 549.391 82.261 547.969 80.598 L 547.969 80.598 L 547.969 80.598 Q 546.547 78.935 543.525 78.935 L 543.525 78.935 L 543.525 78.935 Q 539.564 78.935 537.724 81.309 L 537.724 81.309 L 537.724 81.309 Q 535.883 83.683 535.883 89.091 L 535.883 89.091 L 535.883 103.691 L 531.668 103.691 L 531.668 75.863 L 535.096 75.863 L 535.781 79.671 L 535.984 79.671 L 535.984 79.671 Q 537.178 77.64 539.349 76.498 L 539.349 76.498 L 539.349 76.498 Q 541.52 75.355 544.211 75.355 L 544.211 75.355 L 544.211 75.355 Q 550.736 75.355 552.742 80.078 L 552.742 80.078 L 552.945 80.078 L 552.945 80.078 Q 554.189 77.894 556.551 76.625 L 556.551 76.625 L 556.551 76.625 Q 558.912 75.355 561.934 75.355 L 561.934 75.355 L 561.934 75.355 Q 566.656 75.355 569.005 77.78 L 569.005 77.78 L 569.005 77.78 Q 571.354 80.205 571.354 85.537 L 571.354 85.537 L 571.354 103.691 L 571.354 103.691 Z  M 592.986 104.199 L 592.986 104.199 L 592.986 104.199 Q 590.27 104.199 588.022 103.196 L 588.022 103.196 L 588.022 103.196 Q 585.775 102.193 584.252 100.111 L 584.252 100.111 L 583.947 100.111 L 583.947 100.111 Q 584.252 102.548 584.252 104.732 L 584.252 104.732 L 584.252 116.183 L 580.037 116.183 L 580.037 75.863 L 583.465 75.863 L 584.049 79.671 L 584.252 79.671 L 584.252 79.671 Q 585.877 77.386 588.035 76.371 L 588.035 76.371 L 588.035 76.371 Q 590.193 75.355 592.986 75.355 L 592.986 75.355 L 592.986 75.355 Q 598.521 75.355 601.53 79.138 L 601.53 79.138 L 601.53 79.138 Q 604.539 82.921 604.539 89.751 L 604.539 89.751 L 604.539 89.751 Q 604.539 96.607 601.479 100.403 L 601.479 100.403 L 601.479 100.403 Q 598.42 104.199 592.986 104.199 Z  M 592.377 78.935 L 592.377 78.935 L 592.377 78.935 Q 588.111 78.935 586.207 81.296 L 586.207 81.296 L 586.207 81.296 Q 584.303 83.658 584.252 88.812 L 584.252 88.812 L 584.252 89.751 L 584.252 89.751 Q 584.252 95.617 586.207 98.143 L 586.207 98.143 L 586.207 98.143 Q 588.162 100.669 592.479 100.669 L 592.479 100.669 L 592.479 100.669 Q 596.084 100.669 598.128 97.75 L 598.128 97.75 L 598.128 97.75 Q 600.172 94.83 600.172 89.701 L 600.172 89.701 L 600.172 89.701 Q 600.172 84.496 598.128 81.715 L 598.128 81.715 L 598.128 81.715 Q 596.084 78.935 592.377 78.935 Z  M 616.117 64.183 L 616.117 103.691 L 611.902 103.691 L 611.902 64.183 L 616.117 64.183 L 616.117 64.183 Z  M 645.291 103.691 L 642.168 103.691 L 641.33 99.73 L 641.127 99.73 L 641.127 99.73 Q 639.045 102.345 636.976 103.272 L 636.976 103.272 L 636.976 103.272 Q 634.906 104.199 631.809 104.199 L 631.809 104.199 L 631.809 104.199 Q 627.67 104.199 625.321 102.066 L 625.321 102.066 L 625.321 102.066 Q 622.973 99.933 622.973 95.998 L 622.973 95.998 L 622.973 95.998 Q 622.973 87.568 636.455 87.162 L 636.455 87.162 L 641.178 87.009 L 641.178 85.283 L 641.178 85.283 Q 641.178 82.007 639.769 80.446 L 639.769 80.446 L 639.769 80.446 Q 638.359 78.884 635.262 78.884 L 635.262 78.884 L 635.262 78.884 Q 631.783 78.884 627.391 81.017 L 627.391 81.017 L 626.096 77.792 L 626.096 77.792 Q 628.152 76.675 630.603 76.041 L 630.603 76.041 L 630.603 76.041 Q 633.053 75.406 635.516 75.406 L 635.516 75.406 L 635.516 75.406 Q 640.492 75.406 642.892 77.615 L 642.892 77.615 L 642.892 77.615 Q 645.291 79.824 645.291 84.699 L 645.291 84.699 L 645.291 103.691 L 645.291 103.691 Z  M 632.646 100.72 L 632.646 100.72 L 632.646 100.72 Q 636.582 100.72 638.829 98.562 L 638.829 98.562 L 638.829 98.562 Q 641.076 96.404 641.076 92.519 L 641.076 92.519 L 641.076 90.005 L 636.861 90.183 L 636.861 90.183 Q 631.834 90.361 629.612 91.745 L 629.612 91.745 L 629.612 91.745 Q 627.391 93.128 627.391 96.048 L 627.391 96.048 L 627.391 96.048 Q 627.391 98.333 628.774 99.527 L 628.774 99.527 L 628.774 99.527 Q 630.158 100.72 632.646 100.72 Z  M 662.963 100.72 L 662.963 100.72 L 662.963 100.72 Q 664.08 100.72 665.121 100.555 L 665.121 100.555 L 665.121 100.555 Q 666.162 100.39 666.771 100.212 L 666.771 100.212 L 666.771 103.437 L 666.771 103.437 Q 666.086 103.767 664.753 103.983 L 664.753 103.983 L 664.753 103.983 Q 663.42 104.199 662.354 104.199 L 662.354 104.199 L 662.354 104.199 Q 654.279 104.199 654.279 95.693 L 654.279 95.693 L 654.279 79.138 L 650.293 79.138 L 650.293 77.107 L 654.279 75.355 L 656.057 69.414 L 658.494 69.414 L 658.494 75.863 L 666.568 75.863 L 666.568 79.138 L 658.494 79.138 L 658.494 95.515 L 658.494 95.515 Q 658.494 98.029 659.688 99.375 L 659.688 99.375 L 659.688 99.375 Q 660.881 100.72 662.963 100.72 Z  M 684.088 104.199 L 684.088 104.199 L 684.088 104.199 Q 677.918 104.199 674.351 100.441 L 674.351 100.441 L 674.351 100.441 Q 670.783 96.683 670.783 90.005 L 670.783 90.005 L 670.783 90.005 Q 670.783 83.277 674.097 79.316 L 674.097 79.316 L 674.097 79.316 Q 677.41 75.355 682.996 75.355 L 682.996 75.355 L 682.996 75.355 Q 688.227 75.355 691.273 78.795 L 691.273 78.795 L 691.273 78.795 Q 694.32 82.236 694.32 87.873 L 694.32 87.873 L 694.32 90.539 L 675.15 90.539 L 675.15 90.539 Q 675.277 95.439 677.626 97.978 L 677.626 97.978 L 677.626 97.978 Q 679.975 100.517 684.24 100.517 L 684.24 100.517 L 684.24 100.517 Q 688.734 100.517 693.127 98.638 L 693.127 98.638 L 693.127 102.396 L 693.127 102.396 Q 690.893 103.361 688.899 103.78 L 688.899 103.78 L 688.899 103.78 Q 686.906 104.199 684.088 104.199 Z  M 682.945 78.884 L 682.945 78.884 L 682.945 78.884 Q 679.594 78.884 677.601 81.068 L 677.601 81.068 L 677.601 81.068 Q 675.607 83.251 675.252 87.111 L 675.252 87.111 L 689.801 87.111 L 689.801 87.111 Q 689.801 83.125 688.023 81.004 L 688.023 81.004 L 688.023 81.004 Q 686.246 78.884 682.945 78.884 Z  M 296.297 103.691 L 292.818 103.691 L 280.225 70.785 L 280.021 70.785 L 280.021 70.785 Q 280.377 74.695 280.377 80.078 L 280.377 80.078 L 280.377 103.691 L 276.391 103.691 L 276.391 66.57 L 282.891 66.57 L 294.646 97.191 L 294.85 97.191 L 306.707 66.57 L 313.156 66.57 L 313.156 103.691 L 308.84 103.691 L 308.84 79.773 L 308.84 79.773 Q 308.84 75.66 309.195 70.835 L 309.195 70.835 L 308.992 70.835 L 296.297 103.691 L 296.297 103.691 Z  M 346.723 89.751 L 346.723 89.751 L 346.723 89.751 Q 346.723 96.556 343.295 100.377 L 343.295 100.377 L 343.295 100.377 Q 339.867 104.199 333.824 104.199 L 333.824 104.199 L 333.824 104.199 Q 330.092 104.199 327.197 102.447 L 327.197 102.447 L 327.197 102.447 Q 324.303 100.695 322.729 97.419 L 322.729 97.419 L 322.729 97.419 Q 321.154 94.144 321.154 89.751 L 321.154 89.751 L 321.154 89.751 Q 321.154 82.947 324.557 79.151 L 324.557 79.151 L 324.557 79.151 Q 327.959 75.355 334.002 75.355 L 334.002 75.355 L 334.002 75.355 Q 339.842 75.355 343.282 79.24 L 343.282 79.24 L 343.282 79.24 Q 346.723 83.125 346.723 89.751 Z  M 325.521 89.751 L 325.521 89.751 L 325.521 89.751 Q 325.521 95.083 327.654 97.876 L 327.654 97.876 L 327.654 97.876 Q 329.787 100.669 333.926 100.669 L 333.926 100.669 L 333.926 100.669 Q 338.064 100.669 340.21 97.889 L 340.21 97.889 L 340.21 97.889 Q 342.355 95.109 342.355 89.751 L 342.355 89.751 L 342.355 89.751 Q 342.355 84.445 340.21 81.69 L 340.21 81.69 L 340.21 81.69 Q 338.064 78.935 333.875 78.935 L 333.875 78.935 L 333.875 78.935 Q 329.736 78.935 327.629 81.652 L 327.629 81.652 L 327.629 81.652 Q 325.521 84.369 325.521 89.751 Z  M 373.611 103.691 L 373.053 99.958 L 372.824 99.958 L 372.824 99.958 Q 369.904 104.199 364.09 104.199 L 364.09 104.199 L 364.09 104.199 Q 358.631 104.199 355.597 100.466 L 355.597 100.466 L 355.597 100.466 Q 352.563 96.734 352.563 89.853 L 352.563 89.853 L 352.563 89.853 Q 352.563 82.972 355.609 79.164 L 355.609 79.164 L 355.609 79.164 Q 358.656 75.355 364.09 75.355 L 364.09 75.355 L 364.09 75.355 Q 369.752 75.355 372.773 79.468 L 372.773 79.468 L 373.104 79.468 L 372.926 77.462 L 372.824 75.507 L 372.824 64.183 L 377.039 64.183 L 377.039 103.691 L 373.611 103.691 L 373.611 103.691 Z  M 364.623 100.669 L 364.623 100.669 L 364.623 100.669 Q 368.939 100.669 370.882 98.321 L 370.882 98.321 L 370.882 98.321 Q 372.824 95.972 372.824 90.742 L 372.824 90.742 L 372.824 89.853 L 372.824 89.853 Q 372.824 83.937 370.856 81.411 L 370.856 81.411 L 370.856 81.411 Q 368.889 78.884 364.572 78.884 L 364.572 78.884 L 364.572 78.884 Q 360.865 78.884 358.897 81.766 L 358.897 81.766 L 358.897 81.766 Q 356.93 84.648 356.93 89.904 L 356.93 89.904 L 356.93 89.904 Q 356.93 95.236 358.885 97.953 L 358.885 97.953 L 358.885 97.953 Q 360.84 100.669 364.623 100.669 Z  M 385.672 75.863 L 389.938 75.863 L 389.938 93.916 L 389.938 93.916 Q 389.938 97.318 391.486 98.994 L 391.486 98.994 L 391.486 98.994 Q 393.035 100.669 396.336 100.669 L 396.336 100.669 L 396.336 100.669 Q 400.703 100.669 402.722 98.283 L 402.722 98.283 L 402.722 98.283 Q 404.74 95.896 404.74 90.488 L 404.74 90.488 L 404.74 75.863 L 408.955 75.863 L 408.955 103.691 L 405.477 103.691 L 404.867 99.958 L 404.639 99.958 L 404.639 99.958 Q 403.344 102.015 401.046 103.107 L 401.046 103.107 L 401.046 103.107 Q 398.748 104.199 395.803 104.199 L 395.803 104.199 L 395.803 104.199 Q 390.725 104.199 388.198 101.787 L 388.198 101.787 L 388.198 101.787 Q 385.672 99.375 385.672 94.068 L 385.672 94.068 L 385.672 75.863 L 385.672 75.863 Z  M 422.107 64.183 L 422.107 103.691 L 417.893 103.691 L 417.893 64.183 L 422.107 64.183 L 422.107 64.183 Z  M 442.801 104.199 L 442.801 104.199 L 442.801 104.199 Q 436.631 104.199 433.063 100.441 L 433.063 100.441 L 433.063 100.441 Q 429.496 96.683 429.496 90.005 L 429.496 90.005 L 429.496 90.005 Q 429.496 83.277 432.81 79.316 L 432.81 79.316 L 432.81 79.316 Q 436.123 75.355 441.709 75.355 L 441.709 75.355 L 441.709 75.355 Q 446.939 75.355 449.986 78.795 L 449.986 78.795 L 449.986 78.795 Q 453.033 82.236 453.033 87.873 L 453.033 87.873 L 453.033 90.539 L 433.863 90.539 L 433.863 90.539 Q 433.99 95.439 436.339 97.978 L 436.339 97.978 L 436.339 97.978 Q 438.688 100.517 442.953 100.517 L 442.953 100.517 L 442.953 100.517 Q 447.447 100.517 451.84 98.638 L 451.84 98.638 L 451.84 102.396 L 451.84 102.396 Q 449.605 103.361 447.612 103.78 L 447.612 103.78 L 447.612 103.78 Q 445.619 104.199 442.801 104.199 Z  M 441.658 78.884 L 441.658 78.884 L 441.658 78.884 Q 438.307 78.884 436.313 81.068 L 436.313 81.068 L 436.313 81.068 Q 434.32 83.251 433.965 87.111 L 433.965 87.111 L 448.514 87.111 L 448.514 87.111 Q 448.514 83.125 446.736 81.004 L 446.736 81.004 L 446.736 81.004 Q 444.959 78.884 441.658 78.884 Z  M 159.695 113.466 L 159.695 113.466 L 159.695 113.466 Q 157.309 113.466 155.938 112.781 L 155.938 112.781 L 155.938 109.099 L 155.938 109.099 Q 157.74 109.607 159.695 109.607 L 159.695 109.607 L 159.695 109.607 Q 162.209 109.607 163.517 108.083 L 163.517 108.083 L 163.517 108.083 Q 164.824 106.56 164.824 103.691 L 164.824 103.691 L 164.824 66.57 L 169.141 66.57 L 169.141 103.335 L 169.141 103.335 Q 169.141 108.16 166.703 110.813 L 166.703 110.813 L 166.703 110.813 Q 164.266 113.466 159.695 113.466 Z  M 198.594 103.691 L 195.471 103.691 L 194.633 99.73 L 194.43 99.73 L 194.43 99.73 Q 192.348 102.345 190.278 103.272 L 190.278 103.272 L 190.278 103.272 Q 188.209 104.199 185.111 104.199 L 185.111 104.199 L 185.111 104.199 Q 180.973 104.199 178.624 102.066 L 178.624 102.066 L 178.624 102.066 Q 176.275 99.933 176.275 95.998 L 176.275 95.998 L 176.275 95.998 Q 176.275 87.568 189.758 87.162 L 189.758 87.162 L 194.48 87.009 L 194.48 85.283 L 194.48 85.283 Q 194.48 82.007 193.071 80.446 L 193.071 80.446 L 193.071 80.446 Q 191.662 78.884 188.564 78.884 L 188.564 78.884 L 188.564 78.884 Q 185.086 78.884 180.693 81.017 L 180.693 81.017 L 179.398 77.792 L 179.398 77.792 Q 181.455 76.675 183.905 76.041 L 183.905 76.041 L 183.905 76.041 Q 186.355 75.406 188.818 75.406 L 188.818 75.406 L 188.818 75.406 Q 193.795 75.406 196.194 77.615 L 196.194 77.615 L 196.194 77.615 Q 198.594 79.824 198.594 84.699 L 198.594 84.699 L 198.594 103.691 L 198.594 103.691 Z  M 185.949 100.72 L 185.949 100.72 L 185.949 100.72 Q 189.885 100.72 192.132 98.562 L 192.132 98.562 L 192.132 98.562 Q 194.379 96.404 194.379 92.519 L 194.379 92.519 L 194.379 90.005 L 190.164 90.183 L 190.164 90.183 Q 185.137 90.361 182.915 91.745 L 182.915 91.745 L 182.915 91.745 Q 180.693 93.128 180.693 96.048 L 180.693 96.048 L 180.693 96.048 Q 180.693 98.333 182.077 99.527 L 182.077 99.527 L 182.077 99.527 Q 183.461 100.72 185.949 100.72 Z  M 218.297 103.691 L 213.371 103.691 L 202.809 75.863 L 207.328 75.863 L 213.32 92.367 L 213.32 92.367 Q 215.352 98.156 215.707 99.882 L 215.707 99.882 L 215.91 99.882 L 215.91 99.882 Q 216.189 98.537 217.675 94.309 L 217.675 94.309 L 217.675 94.309 Q 219.16 90.082 224.34 75.863 L 224.34 75.863 L 228.859 75.863 L 218.297 103.691 L 218.297 103.691 Z  M 253.564 103.691 L 250.441 103.691 L 249.604 99.73 L 249.4 99.73 L 249.4 99.73 Q 247.318 102.345 245.249 103.272 L 245.249 103.272 L 245.249 103.272 Q 243.18 104.199 240.082 104.199 L 240.082 104.199 L 240.082 104.199 Q 235.943 104.199 233.595 102.066 L 233.595 102.066 L 233.595 102.066 Q 231.246 99.933 231.246 95.998 L 231.246 95.998 L 231.246 95.998 Q 231.246 87.568 244.729 87.162 L 244.729 87.162 L 249.451 87.009 L 249.451 85.283 L 249.451 85.283 Q 249.451 82.007 248.042 80.446 L 248.042 80.446 L 248.042 80.446 Q 246.633 78.884 243.535 78.884 L 243.535 78.884 L 243.535 78.884 Q 240.057 78.884 235.664 81.017 L 235.664 81.017 L 234.369 77.792 L 234.369 77.792 Q 236.426 76.675 238.876 76.041 L 238.876 76.041 L 238.876 76.041 Q 241.326 75.406 243.789 75.406 L 243.789 75.406 L 243.789 75.406 Q 248.766 75.406 251.165 77.615 L 251.165 77.615 L 251.165 77.615 Q 253.564 79.824 253.564 84.699 L 253.564 84.699 L 253.564 103.691 L 253.564 103.691 Z  M 240.92 100.72 L 240.92 100.72 L 240.92 100.72 Q 244.855 100.72 247.103 98.562 L 247.103 98.562 L 247.103 98.562 Q 249.35 96.404 249.35 92.519 L 249.35 92.519 L 249.35 90.005 L 245.135 90.183 L 245.135 90.183 Q 240.107 90.361 237.886 91.745 L 237.886 91.745 L 237.886 91.745 Q 235.664 93.128 235.664 96.048 L 235.664 96.048 L 235.664 96.048 Q 235.664 98.333 237.048 99.527 L 237.048 99.527 L 237.048 99.527 Q 238.432 100.72 240.92 100.72 Z  M 427.225 26.255 L 427.225 50.58 L 424.07 50.58 L 424.07 26.255 L 415.479 26.255 L 415.479 23.453 L 435.815 23.453 L 435.815 26.255 L 427.225 26.255 L 427.225 26.255 Z  M 456.986 40.394 L 456.986 40.394 L 456.986 40.394 Q 456.986 45.366 454.481 48.159 L 454.481 48.159 L 454.481 48.159 Q 451.977 50.951 447.561 50.951 L 447.561 50.951 L 447.561 50.951 Q 444.833 50.951 442.718 49.671 L 442.718 49.671 L 442.718 49.671 Q 440.603 48.391 439.452 45.997 L 439.452 45.997 L 439.452 45.997 Q 438.302 43.604 438.302 40.394 L 438.302 40.394 L 438.302 40.394 Q 438.302 35.421 440.788 32.647 L 440.788 32.647 L 440.788 32.647 Q 443.274 29.873 447.69 29.873 L 447.69 29.873 L 447.69 29.873 Q 451.958 29.873 454.472 32.712 L 454.472 32.712 L 454.472 32.712 Q 456.986 35.551 456.986 40.394 Z  M 441.493 40.394 L 441.493 40.394 L 441.493 40.394 Q 441.493 44.29 443.052 46.331 L 443.052 46.331 L 443.052 46.331 Q 444.61 48.372 447.635 48.372 L 447.635 48.372 L 447.635 48.372 Q 450.659 48.372 452.227 46.34 L 452.227 46.34 L 452.227 46.34 Q 453.795 44.309 453.795 40.394 L 453.795 40.394 L 453.795 40.394 Q 453.795 36.516 452.227 34.502 L 452.227 34.502 L 452.227 34.502 Q 450.659 32.489 447.598 32.489 L 447.598 32.489 L 447.598 32.489 Q 444.573 32.489 443.033 34.475 L 443.033 34.475 L 443.033 34.475 Q 441.493 36.46 441.493 40.394 Z  M 479.938 40.394 L 479.938 40.394 L 479.938 40.394 Q 479.938 45.366 477.434 48.159 L 477.434 48.159 L 477.434 48.159 Q 474.929 50.951 470.513 50.951 L 470.513 50.951 L 470.513 50.951 Q 467.785 50.951 465.67 49.671 L 465.67 49.671 L 465.67 49.671 Q 463.555 48.391 462.404 45.997 L 462.404 45.997 L 462.404 45.997 Q 461.254 43.604 461.254 40.394 L 461.254 40.394 L 461.254 40.394 Q 461.254 35.421 463.74 32.647 L 463.74 32.647 L 463.74 32.647 Q 466.227 29.873 470.643 29.873 L 470.643 29.873 L 470.643 29.873 Q 474.91 29.873 477.424 32.712 L 477.424 32.712 L 477.424 32.712 Q 479.938 35.551 479.938 40.394 Z  M 464.445 40.394 L 464.445 40.394 L 464.445 40.394 Q 464.445 44.29 466.004 46.331 L 466.004 46.331 L 466.004 46.331 Q 467.563 48.372 470.587 48.372 L 470.587 48.372 L 470.587 48.372 Q 473.611 48.372 475.179 46.34 L 475.179 46.34 L 475.179 46.34 Q 476.747 44.309 476.747 40.394 L 476.747 40.394 L 476.747 40.394 Q 476.747 36.516 475.179 34.502 L 475.179 34.502 L 475.179 34.502 Q 473.611 32.489 470.55 32.489 L 470.55 32.489 L 470.55 32.489 Q 467.525 32.489 465.985 34.475 L 465.985 34.475 L 465.985 34.475 Q 464.445 36.46 464.445 40.394 Z  M 488.418 21.709 L 488.418 50.58 L 485.338 50.58 L 485.338 21.709 L 488.418 21.709 L 488.418 21.709 Z  M 508.067 45.032 L 508.067 45.032 L 508.067 45.032 Q 508.067 47.871 505.952 49.411 L 505.952 49.411 L 505.952 49.411 Q 503.837 50.951 500.015 50.951 L 500.015 50.951 L 500.015 50.951 Q 495.97 50.951 493.706 49.671 L 493.706 49.671 L 493.706 46.813 L 493.706 46.813 Q 495.172 47.556 496.851 47.982 L 496.851 47.982 L 496.851 47.982 Q 498.53 48.409 500.089 48.409 L 500.089 48.409 L 500.089 48.409 Q 502.501 48.409 503.8 47.639 L 503.8 47.639 L 503.8 47.639 Q 505.099 46.869 505.099 45.292 L 505.099 45.292 L 505.099 45.292 Q 505.099 44.104 504.069 43.26 L 504.069 43.26 L 504.069 43.26 Q 503.039 42.416 500.052 41.266 L 500.052 41.266 L 500.052 41.266 Q 497.213 40.208 496.016 39.419 L 496.016 39.419 L 496.016 39.419 Q 494.819 38.631 494.235 37.629 L 494.235 37.629 L 494.235 37.629 Q 493.65 36.627 493.65 35.235 L 493.65 35.235 L 493.65 35.235 Q 493.65 32.749 495.673 31.311 L 495.673 31.311 L 495.673 31.311 Q 497.695 29.873 501.221 29.873 L 501.221 29.873 L 501.221 29.873 Q 504.505 29.873 507.641 31.209 L 507.641 31.209 L 506.546 33.714 L 506.546 33.714 Q 503.484 32.452 500.998 32.452 L 500.998 32.452 L 500.998 32.452 Q 498.809 32.452 497.695 33.139 L 497.695 33.139 L 497.695 33.139 Q 496.582 33.825 496.582 35.031 L 496.582 35.031 L 496.582 35.031 Q 496.582 35.848 497 36.423 L 497 36.423 L 497 36.423 Q 497.417 36.998 498.345 37.518 L 498.345 37.518 L 498.345 37.518 Q 499.272 38.037 501.907 39.021 L 501.907 39.021 L 501.907 39.021 Q 505.525 40.338 506.796 41.674 L 506.796 41.674 L 506.796 41.674 Q 508.067 43.01 508.067 45.032 Z  M 358.146 36.757 L 358.146 36.757 L 358.146 36.757 Q 358.146 43.474 354.5 47.027 L 354.5 47.027 L 354.5 47.027 Q 350.854 50.58 344.007 50.58 L 344.007 50.58 L 336.492 50.58 L 336.492 23.453 L 344.805 23.453 L 344.805 23.453 Q 351.132 23.453 354.639 26.96 L 354.639 26.96 L 354.639 26.96 Q 358.146 30.467 358.146 36.757 Z  M 354.806 36.868 L 354.806 36.868 L 354.806 36.868 Q 354.806 31.562 352.143 28.871 L 352.143 28.871 L 352.143 28.871 Q 349.48 26.181 344.229 26.181 L 344.229 26.181 L 339.646 26.181 L 339.646 47.853 L 343.487 47.853 L 343.487 47.853 Q 349.128 47.853 351.967 45.079 L 351.967 45.079 L 351.967 45.079 Q 354.806 42.305 354.806 36.868 Z  M 373.193 36.293 L 382.248 50.58 L 378.667 50.58 L 371.375 38.649 L 363.953 50.58 L 360.613 50.58 L 369.631 36.404 L 361.226 23.453 L 364.714 23.453 L 371.449 34.196 L 378.24 23.453 L 381.599 23.453 L 373.193 36.293 L 373.193 36.293 Z  M 403.326 31.357 L 403.326 31.357 L 403.326 31.357 Q 403.326 35.477 400.515 37.694 L 400.515 37.694 L 400.515 37.694 Q 397.704 39.911 392.472 39.911 L 392.472 39.911 L 389.28 39.911 L 389.28 50.58 L 386.126 50.58 L 386.126 23.453 L 393.158 23.453 L 393.158 23.453 Q 403.326 23.453 403.326 31.357 Z  M 389.28 26.181 L 389.28 37.202 L 392.119 37.202 L 392.119 37.202 Q 396.313 37.202 398.187 35.848 L 398.187 35.848 L 398.187 35.848 Q 400.061 34.493 400.061 31.506 L 400.061 31.506 L 400.061 31.506 Q 400.061 28.815 398.298 27.498 L 398.298 27.498 L 398.298 27.498 Q 396.535 26.181 392.806 26.181 L 392.806 26.181 L 389.28 26.181 L 389.28 26.181 Z  M 178.276 50.58 L 175.734 50.58 L 166.531 26.533 L 166.383 26.533 L 166.383 26.533 Q 166.643 29.391 166.643 33.324 L 166.643 33.324 L 166.643 50.58 L 163.729 50.58 L 163.729 23.453 L 168.479 23.453 L 177.07 45.83 L 177.219 45.83 L 185.884 23.453 L 190.597 23.453 L 190.597 50.58 L 187.442 50.58 L 187.442 33.102 L 187.442 33.102 Q 187.442 30.096 187.702 26.57 L 187.702 26.57 L 187.554 26.57 L 178.276 50.58 L 178.276 50.58 Z  M 212.361 50.58 L 210.079 50.58 L 209.467 47.686 L 209.318 47.686 L 209.318 47.686 Q 207.797 49.597 206.285 50.274 L 206.285 50.274 L 206.285 50.274 Q 204.772 50.951 202.509 50.951 L 202.509 50.951 L 202.509 50.951 Q 199.484 50.951 197.768 49.393 L 197.768 49.393 L 197.768 49.393 Q 196.052 47.834 196.052 44.958 L 196.052 44.958 L 196.052 44.958 Q 196.052 38.798 205.904 38.501 L 205.904 38.501 L 209.355 38.39 L 209.355 37.128 L 209.355 37.128 Q 209.355 34.734 208.326 33.593 L 208.326 33.593 L 208.326 33.593 Q 207.296 32.452 205.032 32.452 L 205.032 32.452 L 205.032 32.452 Q 202.49 32.452 199.28 34.011 L 199.28 34.011 L 198.334 31.654 L 198.334 31.654 Q 199.837 30.838 201.627 30.374 L 201.627 30.374 L 201.627 30.374 Q 203.418 29.91 205.218 29.91 L 205.218 29.91 L 205.218 29.91 Q 208.854 29.91 210.608 31.524 L 210.608 31.524 L 210.608 31.524 Q 212.361 33.139 212.361 36.701 L 212.361 36.701 L 212.361 50.58 L 212.361 50.58 Z  M 203.121 48.409 L 203.121 48.409 L 203.121 48.409 Q 205.997 48.409 207.639 46.832 L 207.639 46.832 L 207.639 46.832 Q 209.281 45.255 209.281 42.416 L 209.281 42.416 L 209.281 40.579 L 206.201 40.709 L 206.201 40.709 Q 202.527 40.839 200.904 41.85 L 200.904 41.85 L 200.904 41.85 Q 199.28 42.861 199.28 44.995 L 199.28 44.995 L 199.28 44.995 Q 199.28 46.665 200.292 47.537 L 200.292 47.537 L 200.292 47.537 Q 201.303 48.409 203.121 48.409 Z  M 228.318 30.244 L 235.351 30.244 L 235.351 32.192 L 231.584 32.638 L 231.584 32.638 Q 232.104 33.287 232.512 34.335 L 232.512 34.335 L 232.512 34.335 Q 232.92 35.384 232.92 36.701 L 232.92 36.701 L 232.92 36.701 Q 232.92 39.688 230.879 41.47 L 230.879 41.47 L 230.879 41.47 Q 228.838 43.251 225.275 43.251 L 225.275 43.251 L 225.275 43.251 Q 224.366 43.251 223.568 43.103 L 223.568 43.103 L 223.568 43.103 Q 221.602 44.142 221.602 45.719 L 221.602 45.719 L 221.602 45.719 Q 221.602 46.554 222.288 46.953 L 222.288 46.953 L 222.288 46.953 Q 222.975 47.352 224.645 47.352 L 224.645 47.352 L 228.244 47.352 L 228.244 47.352 Q 231.547 47.352 233.319 48.743 L 233.319 48.743 L 233.319 48.743 Q 235.091 50.135 235.091 52.788 L 235.091 52.788 L 235.091 52.788 Q 235.091 56.165 232.382 57.937 L 232.382 57.937 L 232.382 57.937 Q 229.673 59.709 224.478 59.709 L 224.478 59.709 L 224.478 59.709 Q 220.488 59.709 218.327 58.225 L 218.327 58.225 L 218.327 58.225 Q 216.165 56.74 216.165 54.031 L 216.165 54.031 L 216.165 54.031 Q 216.165 52.176 217.353 50.821 L 217.353 50.821 L 217.353 50.821 Q 218.54 49.467 220.692 48.984 L 220.692 48.984 L 220.692 48.984 Q 219.913 48.632 219.384 47.89 L 219.384 47.89 L 219.384 47.89 Q 218.855 47.147 218.855 46.164 L 218.855 46.164 L 218.855 46.164 Q 218.855 45.051 219.449 44.216 L 219.449 44.216 L 219.449 44.216 Q 220.043 43.381 221.323 42.602 L 221.323 42.602 L 221.323 42.602 Q 219.746 41.952 218.753 40.394 L 218.753 40.394 L 218.753 40.394 Q 217.761 38.835 217.761 36.831 L 217.761 36.831 L 217.761 36.831 Q 217.761 33.491 219.765 31.682 L 219.765 31.682 L 219.765 31.682 Q 221.769 29.873 225.442 29.873 L 225.442 29.873 L 225.442 29.873 Q 227.038 29.873 228.318 30.244 L 228.318 30.244 L 228.318 30.244 Z  M 219.134 53.994 L 219.134 53.994 L 219.134 53.994 Q 219.134 55.646 220.525 56.499 L 220.525 56.499 L 220.525 56.499 Q 221.917 57.353 224.515 57.353 L 224.515 57.353 L 224.515 57.353 Q 228.393 57.353 230.257 56.193 L 230.257 56.193 L 230.257 56.193 Q 232.122 55.033 232.122 53.048 L 232.122 53.048 L 232.122 53.048 Q 232.122 51.396 231.102 50.756 L 231.102 50.756 L 231.102 50.756 Q 230.081 50.116 227.261 50.116 L 227.261 50.116 L 223.568 50.116 L 223.568 50.116 Q 221.472 50.116 220.303 51.118 L 220.303 51.118 L 220.303 51.118 Q 219.134 52.12 219.134 53.994 Z  M 220.804 36.757 L 220.804 36.757 L 220.804 36.757 Q 220.804 38.891 222.01 39.985 L 222.01 39.985 L 222.01 39.985 Q 223.216 41.08 225.368 41.08 L 225.368 41.08 L 225.368 41.08 Q 229.877 41.08 229.877 36.701 L 229.877 36.701 L 229.877 36.701 Q 229.877 32.118 225.313 32.118 L 225.313 32.118 L 225.313 32.118 Q 223.142 32.118 221.973 33.287 L 221.973 33.287 L 221.973 33.287 Q 220.804 34.456 220.804 36.757 Z  M 256.521 50.58 L 253.441 50.58 L 253.441 37.425 L 253.441 37.425 Q 253.441 34.938 252.31 33.714 L 252.31 33.714 L 252.31 33.714 Q 251.178 32.489 248.766 32.489 L 248.766 32.489 L 248.766 32.489 Q 245.574 32.489 244.09 34.215 L 244.09 34.215 L 244.09 34.215 Q 242.605 35.94 242.605 39.911 L 242.605 39.911 L 242.605 50.58 L 239.525 50.58 L 239.525 30.244 L 242.03 30.244 L 242.531 33.027 L 242.68 33.027 L 242.68 33.027 Q 243.626 31.524 245.333 30.699 L 245.333 30.699 L 245.333 30.699 Q 247.04 29.873 249.137 29.873 L 249.137 29.873 L 249.137 29.873 Q 252.811 29.873 254.666 31.645 L 254.666 31.645 L 254.666 31.645 Q 256.521 33.417 256.521 37.313 L 256.521 37.313 L 256.521 50.58 L 256.521 50.58 Z  M 280.401 40.394 L 280.401 40.394 L 280.401 40.394 Q 280.401 45.366 277.896 48.159 L 277.896 48.159 L 277.896 48.159 Q 275.392 50.951 270.976 50.951 L 270.976 50.951 L 270.976 50.951 Q 268.248 50.951 266.133 49.671 L 266.133 49.671 L 266.133 49.671 Q 264.018 48.391 262.867 45.997 L 262.867 45.997 L 262.867 45.997 Q 261.717 43.604 261.717 40.394 L 261.717 40.394 L 261.717 40.394 Q 261.717 35.421 264.203 32.647 L 264.203 32.647 L 264.203 32.647 Q 266.689 29.873 271.105 29.873 L 271.105 29.873 L 271.105 29.873 Q 275.373 29.873 277.887 32.712 L 277.887 32.712 L 277.887 32.712 Q 280.401 35.551 280.401 40.394 Z  M 264.908 40.394 L 264.908 40.394 L 264.908 40.394 Q 264.908 44.29 266.467 46.331 L 266.467 46.331 L 266.467 46.331 Q 268.025 48.372 271.05 48.372 L 271.05 48.372 L 271.05 48.372 Q 274.074 48.372 275.642 46.34 L 275.642 46.34 L 275.642 46.34 Q 277.21 44.309 277.21 40.394 L 277.21 40.394 L 277.21 40.394 Q 277.21 36.516 275.642 34.502 L 275.642 34.502 L 275.642 34.502 Q 274.074 32.489 271.013 32.489 L 271.013 32.489 L 271.013 32.489 Q 267.988 32.489 266.448 34.475 L 266.448 34.475 L 266.448 34.475 Q 264.908 36.46 264.908 40.394 Z  M 288.881 21.709 L 288.881 50.58 L 285.801 50.58 L 285.801 21.709 L 288.881 21.709 L 288.881 21.709 Z  M 298.492 30.244 L 298.492 50.58 L 295.412 50.58 L 295.412 30.244 L 298.492 30.244 L 298.492 30.244 Z  M 295.152 24.733 L 295.152 24.733 L 295.152 24.733 Q 295.152 23.676 295.672 23.184 L 295.672 23.184 L 295.672 23.184 Q 296.191 22.692 296.971 22.692 L 296.971 22.692 L 296.971 22.692 Q 297.713 22.692 298.251 23.193 L 298.251 23.193 L 298.251 23.193 Q 298.789 23.694 298.789 24.733 L 298.789 24.733 L 298.789 24.733 Q 298.789 25.772 298.251 26.283 L 298.251 26.283 L 298.251 26.283 Q 297.713 26.793 296.971 26.793 L 296.971 26.793 L 296.971 26.793 Q 296.191 26.793 295.672 26.283 L 295.672 26.283 L 295.672 26.283 Q 295.152 25.772 295.152 24.733 Z  M 319.812 50.58 L 317.529 50.58 L 316.917 47.686 L 316.769 47.686 L 316.769 47.686 Q 315.247 49.597 313.735 50.274 L 313.735 50.274 L 313.735 50.274 Q 312.223 50.951 309.959 50.951 L 309.959 50.951 L 309.959 50.951 Q 306.935 50.951 305.218 49.393 L 305.218 49.393 L 305.218 49.393 Q 303.502 47.834 303.502 44.958 L 303.502 44.958 L 303.502 44.958 Q 303.502 38.798 313.354 38.501 L 313.354 38.501 L 316.806 38.39 L 316.806 37.128 L 316.806 37.128 Q 316.806 34.734 315.776 33.593 L 315.776 33.593 L 315.776 33.593 Q 314.746 32.452 312.482 32.452 L 312.482 32.452 L 312.482 32.452 Q 309.94 32.452 306.73 34.011 L 306.73 34.011 L 305.784 31.654 L 305.784 31.654 Q 307.287 30.838 309.078 30.374 L 309.078 30.374 L 309.078 30.374 Q 310.868 29.91 312.668 29.91 L 312.668 29.91 L 312.668 29.91 Q 316.305 29.91 318.058 31.524 L 318.058 31.524 L 318.058 31.524 Q 319.812 33.139 319.812 36.701 L 319.812 36.701 L 319.812 50.58 L 319.812 50.58 Z  M 310.571 48.409 L 310.571 48.409 L 310.571 48.409 Q 313.447 48.409 315.089 46.832 L 315.089 46.832 L 315.089 46.832 Q 316.731 45.255 316.731 42.416 L 316.731 42.416 L 316.731 40.579 L 313.651 40.709 L 313.651 40.709 Q 309.978 40.839 308.354 41.85 L 308.354 41.85 L 308.354 41.85 Q 306.73 42.861 306.73 44.995 L 306.73 44.995 L 306.73 44.995 Q 306.73 46.665 307.742 47.537 L 307.742 47.537 L 307.742 47.537 Q 308.753 48.409 310.571 48.409 Z "
				fill="url(#_lgradient_20)"/>
		</g>
	</g>
</svg>
